<svg width="584" height="635" viewBox="0 0 584 635" fill="none" xmlns="http://www.w3.org/2000/svg">
<path d="M319.366 413.045C310.143 441.501 299.718 469.519 288.091 497.099C287.689 497.537 287.288 498.194 286.888 499.069C309.742 505.198 339.213 514.829 375.3 527.963C399.758 501.696 420.608 463.39 437.85 413.045H319.366ZM288.091 396.629C298.114 365.984 306.935 331.181 314.554 292.218C345.829 301.412 361.466 310.167 361.467 318.485C361.466 323.301 354.85 329.649 341.619 337.528L324.779 396.629H499.197L522.653 360.512L553.928 386.779C573.975 404.29 573.975 413.046 553.928 413.045H476.943C458.499 465.579 433.639 507.387 402.365 538.469C468.122 566.925 507.416 590.565 520.247 609.39C521.449 611.141 522.251 612.673 522.653 613.987C524.657 620.553 520.247 624.712 509.421 626.463C491.778 627.339 467.52 617.27 436.647 596.256C506.013 643.099 489.573 631.498 387.329 561.453C385.323 560.14 383.318 558.826 381.314 557.513C334.401 593.849 267.842 619.678 181.635 635C263.03 607.858 322.372 577.432 359.662 543.723C340.015 531.027 315.356 517.018 285.685 501.696C278.066 518.769 270.849 527.306 264.033 527.306C261.226 527.306 258.219 526.212 255.011 524.023C243.784 517.456 241.98 507.387 249.598 493.816C263.632 464.047 274.658 437.124 282.678 413.045H172.614L157.578 396.629H288.091ZM101.042 247.565C75.3806 280.398 41.6999 313.232 0 346.065C55.7335 286.527 95.8296 227.865 120.288 170.078C127.906 151.691 135.324 131.116 142.542 108.351C148.155 90.8398 154.37 68.9509 161.186 42.6836C191.258 51.4397 206.294 59.7575 206.295 67.637L205.693 68.2937C205.693 72.672 199.077 79.0198 185.846 87.3371L169.005 130.021H343.423L342.822 59.1003V58.4436C303.527 62.8219 263.03 65.0108 221.331 65.0103C301.522 51.8774 369.485 33.7096 425.219 10.5067C428.427 9.19394 431.835 7.8806 435.444 6.5667C436.245 6.12948 437.047 5.6917 437.85 5.25336H438.451H439.053C442.661 3.5028 446.47 1.75169 450.48 0C470.527 14.8851 476.742 25.3918 469.125 31.5202C467.52 32.834 463.511 35.0229 457.096 38.0869C430.231 44.6541 404.369 49.9074 379.51 53.8469L378.908 129.364V130.021H499.197L522.653 93.9038L553.928 120.171C574.376 137.244 574.376 145.781 553.928 145.781H393.343C429.028 186.932 481.754 223.049 551.522 254.131C562.348 258.947 573.173 263.325 584 267.265C572.773 269.016 557.736 279.304 538.892 298.128C479.549 261.355 431.634 217.358 395.147 166.138C390.335 159.571 385.925 152.786 381.916 145.781H378.908L379.51 256.101C379.509 278.866 376.703 291.781 371.09 294.845L370.488 295.502H369.887H369.285H368.684C366.679 296.377 364.273 296.815 361.467 296.815C349.437 295.064 343.222 286.965 342.822 272.518C343.222 244.063 343.423 207.727 343.423 163.511C307.737 207.727 264.233 243.625 212.91 271.205C195.268 280.836 175.621 290.248 153.969 299.442C213.712 259.604 258.018 220.641 286.888 182.554L287.489 181.898C295.107 171.829 303.327 159.79 312.148 145.781H162.389C151.964 167.67 143.744 183.43 137.73 193.061C136.527 357.229 136.327 486.374 137.129 580.496C137.53 603.261 134.522 616.175 128.107 619.24H127.506H126.904C126.904 619.24 126.904 619.24 126.904 619.24L119.687 620.553C107.257 620.553 101.042 612.673 101.042 596.913C102.245 480.026 102.245 363.577 101.042 247.565Z" fill="black"/>
</svg>
