<svg width="585" height="635" viewBox="0 0 585 635" fill="none" xmlns="http://www.w3.org/2000/svg">
<path d="M528.556 627.647C489.511 615.921 417.86 572.624 417.879 560.767C417.883 558.74 409.001 544.094 398.142 528.22C386.011 510.487 372.22 478.346 362.373 444.861C347.924 395.723 346.419 382.45 347.069 309.895C347.691 240.425 346.564 229.425 338.822 229.412C324.118 229.388 224.682 249.088 213.773 254.187C208.223 256.781 199.882 258.897 195.237 258.889C177.836 258.861 180.727 268.485 200.539 276.54L221.064 284.885L218.008 312.757C216.326 328.087 213.439 346.754 211.591 354.241C207.616 370.347 206.586 370.226 259.264 359.81C304.893 350.788 320.105 352.631 315.779 366.658C313.58 373.786 303.308 377.085 268.97 381.687C212.663 389.233 206.95 393.243 211.366 422.116C213.259 434.493 216.368 474.082 218.275 510.09L221.742 575.56L206.324 581.522C174.951 593.653 150.724 575.616 134.566 528.098C125.613 501.767 125.665 501.422 138.634 501.443C152.964 501.467 156.513 492.589 160.803 445.995L164.357 407.398L138.817 407.733C124.77 407.917 104.285 410.823 93.2947 414.19C72.0759 420.69 62.417 431.991 78.0582 432.017C105.301 432.061 105.943 516.832 78.817 532.219C65.4666 539.793 46.3546 535.689 36.7876 523.195C27.4714 511.028 27.6374 509.355 40.3479 487.299C68.9421 437.681 66.8452 424.171 30.8351 426.007C-14.0667 428.296 -8.45642 418.711 41.6138 407.59C112.863 391.767 109.796 393.425 92.0759 380.306C76.3268 368.646 58.2203 343.075 58.2375 332.518C58.2442 328.413 66.0667 327.574 84.2452 329.729C120.847 334.068 133.39 342.199 137.509 364.258C140.076 378.008 143.543 382.658 150.399 381.543C161.647 379.715 163.835 356.855 156.212 320.812C148.135 282.616 142.882 280.214 88.8696 290.021C35.2183 299.763 33.4655 299.854 36.2467 292.773C38.7096 286.502 48.61 283.223 183.226 244.097C237.544 228.309 299.945 209.641 321.894 202.613C363.679 189.232 410.663 185.992 430.571 195.118C441.637 200.19 441.583 200.667 428.195 216.16C420.661 224.878 410.138 240.143 404.81 250.082C394.89 268.589 382.674 327.978 387.385 334.798C388.827 336.886 391.385 352.488 393.07 369.471C396.693 405.998 429.128 493.63 448.988 520.55C463.013 539.563 501.231 571.363 510.071 571.378C519.763 571.394 545.665 537.271 545.686 524.459C545.712 508.612 558.537 518.121 571.818 543.833C586.716 572.676 588.144 604.761 575.419 624.718C567.141 637.701 562.913 637.965 528.556 627.647ZM307.013 511.173C288.201 502.432 229.468 454.266 229.258 447.407C229.212 445.887 226.997 441.706 224.337 438.116C216.489 427.526 223.385 426.315 259.289 431.98C304.372 439.093 337.135 458.856 347.978 485.477C354.877 502.415 354.997 507.281 348.673 513.759C339.044 523.62 332.992 523.244 307.013 511.173ZM236.661 312.19C238.376 300.618 241.465 289.548 243.524 287.59C247.081 284.208 305.985 295.328 312.063 300.529C318.391 305.944 306.885 312.499 280.516 318.503C265.258 321.977 250.289 326.715 247.251 329.032C236.371 337.33 233.59 332.908 236.661 312.19ZM122.344 189.756C127.139 187.378 153.281 179.832 180.439 172.985C207.596 166.139 245.503 154.903 264.676 148.016C300.293 135.224 321.854 132.912 353.97 138.444C380.683 143.045 376.065 153.571 344.499 160.032C329.324 163.139 295.997 169.84 270.439 174.925C244.881 180.009 214.838 186.492 203.677 189.332C178.696 195.687 109.659 196.047 122.344 189.756ZM89.0215 149.618C72.4856 143.919 72.6231 142.574 91.972 120.758C129.156 78.8325 153.549 34.5149 150.214 14.9443L147.708 0.239671L175.35 3.41255C190.553 5.15761 211.241 9.05247 221.324 12.0678C237.273 16.8378 239.172 19.2386 235.941 30.5445C231.44 46.2901 197.355 95.4775 190.952 95.467C188.433 95.4629 186.366 98.8445 186.36 102.982C186.343 113.295 204.864 108.96 274.179 82.4242C332.874 59.9545 366.928 55.5344 386.582 67.8347C405.929 79.9432 393.678 90.8463 360.786 90.7926C344.73 90.7663 316.551 94.9802 298.166 100.157C279.781 105.333 242.799 112.281 215.984 115.595C186.724 119.212 163.418 124.86 157.701 129.72C149.27 136.886 109.412 155.266 104.104 154.435C102.991 154.26 96.2032 152.093 89.0215 149.618Z" fill="black"/>
</svg>
