<svg width="406" height="105" viewBox="0 0 406 105" fill="none" xmlns="http://www.w3.org/2000/svg">
<path fill-rule="evenodd" clip-rule="evenodd" d="M20 0C8.95431 0 0 8.9543 0 20V85C0 96.0457 8.95431 105 20 105H386C397.046 105 406 96.0457 406 85V20C406 8.95431 397.046 0 386 0H20ZM95.6875 77H127.688V53C127.688 51.4375 127.396 49.9792 126.812 48.625C126.229 47.2708 125.427 46.0938 124.406 45.0938C123.385 44.0729 122.198 43.2708 120.844 42.6875C119.49 42.1042 118.031 41.8125 116.469 41.8125H90.875V48.1875H116.469C117.115 48.1875 117.729 48.3229 118.312 48.5938C118.896 48.8438 119.406 49.1875 119.844 49.625C120.281 50.0625 120.625 50.5729 120.875 51.1562C121.146 51.7396 121.281 52.3542 121.281 53V70.5938H95.6875C95.0208 70.5938 94.3958 70.4688 93.8125 70.2188C93.2292 69.9688 92.7188 69.625 92.2812 69.1875C91.8438 68.75 91.5 68.25 91.25 67.6875C91 67.1042 90.875 66.4792 90.875 65.8125C90.875 65.1667 91 64.5521 91.25 63.9688C91.5 63.3854 91.8438 62.875 92.2812 62.4375C92.7188 62 93.2292 61.6562 93.8125 61.4062C94.3958 61.1354 95.0208 61 95.6875 61H118.062V54.5938H95.6875C94.125 54.5938 92.6667 54.8854 91.3125 55.4688C89.9583 56.0521 88.7708 56.8542 87.75 57.875C86.7292 58.8958 85.9271 60.0833 85.3438 61.4375C84.7604 62.7917 84.4688 64.25 84.4688 65.8125C84.4688 67.3542 84.7604 68.8125 85.3438 70.1875C85.9271 71.5417 86.7292 72.7292 87.75 73.75C88.7708 74.75 89.9583 75.5417 91.3125 76.125C92.6667 76.7083 94.125 77 95.6875 77ZM147.625 77H149.219V70.5938H147.625C146.958 70.5938 146.333 70.4688 145.75 70.2188C145.167 69.9688 144.656 69.625 144.219 69.1875C143.781 68.75 143.438 68.25 143.188 67.6875C142.938 67.1042 142.812 66.4792 142.812 65.8125V29H136.406V65.8125C136.406 67.3542 136.698 68.8125 137.281 70.1875C137.865 71.5417 138.667 72.7292 139.688 73.75C140.708 74.75 141.896 75.5417 143.25 76.125C144.604 76.7083 146.062 77 147.625 77ZM162.406 35.6875C162.656 35.1042 162.781 34.4792 162.781 33.8125C162.781 33.1667 162.656 32.5521 162.406 31.9688C162.156 31.3854 161.812 30.875 161.375 30.4375C160.938 30 160.427 29.6562 159.844 29.4062C159.26 29.1354 158.646 29 158 29C157.333 29 156.708 29.1354 156.125 29.4062C155.542 29.6562 155.031 30 154.594 30.4375C154.156 30.875 153.812 31.3854 153.562 31.9688C153.312 32.5521 153.188 33.1667 153.188 33.8125C153.188 34.4792 153.312 35.1042 153.562 35.6875C153.812 36.25 154.156 36.75 154.594 37.1875C155.031 37.625 155.542 37.9688 156.125 38.2188C156.708 38.4688 157.333 38.5938 158 38.5938C158.646 38.5938 159.26 38.4688 159.844 38.2188C160.427 37.9688 160.938 37.625 161.375 37.1875C161.812 36.75 162.156 36.25 162.406 35.6875ZM154.781 77H161.188V41.8125H154.781V77ZM170.406 77H176.812V48.1875H194.406C195.948 48.2083 197.385 48.5208 198.719 49.125C200.073 49.7083 201.25 50.5104 202.25 51.5312C203.25 52.5312 204.042 53.7083 204.625 55.0625C205.208 56.4167 205.5 57.8646 205.5 59.4062V77H211.906V59.4062C211.906 56.9896 211.448 54.7188 210.531 52.5938C209.615 50.4479 208.365 48.5833 206.781 47C205.198 45.3958 203.344 44.1354 201.219 43.2188C199.094 42.2812 196.823 41.8125 194.406 41.8125H170.406V77ZM273.031 69.2188C273.719 67.6562 274.062 65.9792 274.062 64.1875C274.062 62.7917 273.844 61.4688 273.406 60.2188C272.99 58.9479 272.396 57.7917 271.625 56.75C270.875 55.7083 269.969 54.7917 268.906 54C267.865 53.2083 266.719 52.5938 265.469 52.1562C266.135 51.1354 266.667 50.0312 267.062 48.8438C267.458 47.6354 267.656 46.3542 267.656 45C267.656 43.25 267.312 41.5938 266.625 40.0312C265.958 38.4688 265.042 37.1146 263.875 35.9688C262.729 34.8021 261.375 33.8854 259.812 33.2188C258.25 32.5312 256.594 32.1875 254.844 32.1875H221.312V77H227.719V38.5938H254.844C255.719 38.5938 256.542 38.7604 257.312 39.0938C258.104 39.4271 258.792 39.8854 259.375 40.4688C259.958 41.0521 260.417 41.7396 260.75 42.5312C261.083 43.3021 261.25 44.125 261.25 45C261.25 45.875 261.083 46.7083 260.75 47.5C260.417 48.2708 259.958 48.9479 259.375 49.5312C258.792 50.1146 258.104 50.5729 257.312 50.9062C256.542 51.2396 255.719 51.4062 254.844 51.4062H230.906V57.8125H261.25C262.125 57.8125 262.948 57.9792 263.719 58.3125C264.51 58.6458 265.198 59.1042 265.781 59.6875C266.365 60.2708 266.823 60.9479 267.156 61.7188C267.49 62.4896 267.656 63.3125 267.656 64.1875C267.656 65.0625 267.49 65.8958 267.156 66.6875C266.823 67.4583 266.365 68.1354 265.781 68.7188C265.198 69.3021 264.51 69.7604 263.719 70.0938C262.948 70.4271 262.125 70.5938 261.25 70.5938H230.906V77H261.25C263 77 264.656 76.6667 266.219 76C267.781 75.3333 269.135 74.4271 270.281 73.2812C271.448 72.1146 272.365 70.7604 273.031 69.2188ZM321.969 66.2188C322.885 64.0938 323.344 61.8229 323.344 59.4062C323.344 57.8021 323.135 56.25 322.719 54.75C322.302 53.25 321.719 51.8542 320.969 50.5625C320.219 49.25 319.312 48.0625 318.25 47C317.188 45.9167 316.01 44.9896 314.719 44.2188C313.427 43.4479 312.031 42.8542 310.531 42.4375C309.031 42.0208 307.479 41.8125 305.875 41.8125H296.031C293.615 41.8125 291.344 42.2812 289.219 43.2188C287.094 44.1354 285.24 45.3958 283.656 47C282.094 48.5833 280.854 50.4479 279.938 52.5938C279.021 54.7188 278.562 56.9896 278.562 59.4062C278.562 61.8229 279.021 64.0938 279.938 66.2188C280.854 68.3438 282.094 70.2083 283.656 71.8125C285.24 73.3958 287.094 74.6562 289.219 75.5938C291.344 76.5104 293.615 76.9792 296.031 77H305.875C308.292 76.9792 310.562 76.5104 312.688 75.5938C314.812 74.6562 316.656 73.3958 318.219 71.8125C319.802 70.2083 321.052 68.3438 321.969 66.2188ZM316.094 55.0625C316.677 56.4167 316.969 57.8646 316.969 59.4062C316.969 60.9479 316.677 62.3958 316.094 63.75C315.51 65.1042 314.719 66.2917 313.719 67.3125C312.719 68.3125 311.542 69.1146 310.188 69.7188C308.854 70.3021 307.417 70.5938 305.875 70.5938H296.031C294.49 70.5938 293.042 70.3021 291.688 69.7188C290.354 69.1146 289.188 68.3125 288.188 67.3125C287.188 66.2917 286.396 65.1042 285.812 63.75C285.25 62.3958 284.969 60.9479 284.969 59.4062C284.969 57.8646 285.25 56.4167 285.812 55.0625C286.396 53.7083 287.188 52.5312 288.188 51.5312C289.188 50.5104 290.354 49.7083 291.688 49.125C293.042 48.5208 294.49 48.2083 296.031 48.1875H305.875C307.417 48.2083 308.854 48.5208 310.188 49.125C311.542 49.7083 312.719 50.5104 313.719 51.5312C314.719 52.5312 315.51 53.7083 316.094 55.0625ZM370.469 66.2188C371.385 64.0938 371.844 61.8229 371.844 59.4062C371.844 56.9896 371.385 54.7188 370.469 52.5938C369.552 50.4479 368.302 48.5833 366.719 47C365.135 45.3958 363.281 44.1354 361.156 43.2188C359.031 42.2812 356.76 41.8125 354.344 41.8125H339.969V48.1875H354.344C355.885 48.2083 357.323 48.5208 358.656 49.125C360.01 49.7083 361.188 50.5104 362.188 51.5312C363.188 52.5312 363.979 53.7083 364.562 55.0625C365.146 56.4167 365.438 57.8646 365.438 59.4062C365.438 60.9479 365.146 62.3958 364.562 63.75C363.979 65.1042 363.188 66.2917 362.188 67.3125C361.188 68.3125 360.01 69.1146 358.656 69.7188C357.323 70.3021 355.885 70.5938 354.344 70.5938H336.75V29H330.344V77H354.344C356.76 76.9792 359.031 76.5104 361.156 75.5938C363.281 74.6562 365.135 73.3958 366.719 71.8125C368.302 70.2083 369.552 68.3438 370.469 66.2188ZM41 76.8266L41.2737 29.0123L47.6979 29.0466L47.4242 76.861L41 76.8266ZM75.3407 39.1945C76.5191 35.9625 77.1256 32.4984 77.1256 29H70.1923C70.1923 31.464 69.7651 33.9038 68.9351 36.1802C68.1051 38.4566 66.8886 40.525 65.355 42.2673C63.8214 44.0096 62.0007 45.3917 59.9969 46.3346C57.9932 47.2775 52.4387 47.837 50.2699 47.837V50.8121L50.2441 50.8119L50.2432 53.5999L50.2441 56.9192C52.5316 56.933 57.9491 58.525 60.0566 59.4837C62.164 60.4423 64.0756 61.8403 65.6822 63.5978C67.2887 65.3553 68.5589 67.438 69.42 69.7268C70.2811 72.0157 70.7163 74.4659 70.7009 76.9376L78.0134 76.9818C78.0354 73.4724 77.4174 69.9936 76.1948 66.7439C74.9722 63.4941 73.1689 60.5372 70.8879 58.0419C68.9358 55.9064 66.6666 54.1448 64.1774 52.828V52.8192C66.4229 51.5415 68.4766 49.8603 70.2576 47.837C72.435 45.3633 74.1623 42.4266 75.3407 39.1945Z" fill="#DB0D00"/>
</svg>
